<svg width="40" height="26" viewBox="0 0 40 26" fill="none" xmlns="http://www.w3.org/2000/svg">
<path d="M8.33201 3.96644C7.85604 3.03311 6.90409 2.43311 5.85015 2.43311H2.24636C0.580455 2.43311 -0.507482 4.13311 0.240475 5.59977L7.27807 19.7664C8.40001 22.0664 10.7799 23.5331 13.3977 23.5331H15.7776C16.8315 23.5331 17.5115 22.4664 17.0695 21.5331L8.33201 3.96644Z" fill="#142D53"/>
<path d="M23.4951 6.66644C22.2032 4.06644 19.5513 2.43311 16.6275 2.43311H14.7916C13.7377 2.43311 13.0577 3.49977 13.4997 4.43311L22.2712 22.1331C22.6792 22.9664 23.5631 23.4998 24.515 23.4998H28.2888C29.9547 23.4998 31.0427 21.7998 30.2947 20.3331L23.4951 6.66644Z" fill="#142D53"/>
<path d="M32.5726 2.43311H28.2549C27.2009 2.43311 26.555 3.49977 26.9969 4.39977L29.1388 8.73311C29.6488 9.76644 31.1447 9.76644 31.6547 8.73311L33.7966 4.39977C34.2725 3.49977 33.5926 2.43311 32.5726 2.43311Z" fill="#142D53"/>
</svg>
